<svg width="31" height="27" viewBox="0 0 31 27" fill="none" xmlns="http://www.w3.org/2000/svg">
<path d="M1.39887 15.031L26.2128 15.031L17.0564 23.9996C16.507 24.5487 16.507 25.3723 17.0564 25.9214C17.6057 26.4705 18.4298 26.4705 18.9792 25.9214L30.5163 14.665C30.791 14.4819 30.9741 14.1159 30.9741 13.7498C30.9741 13.3838 30.791 13.0177 30.6079 12.7431L19.0708 1.21214C18.7961 0.937592 18.4298 0.846073 18.0636 0.846073C17.6973 0.846073 17.331 0.937592 17.0564 1.21214C16.507 1.76123 16.507 2.58488 17.0564 3.13397L26.2128 12.2856L1.39887 12.2856C0.666353 12.2856 0.025404 12.9262 0.025404 13.6583C0.025404 14.3904 0.666353 15.031 1.39887 15.031Z" fill="#83AD7C"/>
</svg>
