<svg width="11" height="17" viewBox="0 0 11 17" fill="none" xmlns="http://www.w3.org/2000/svg">
<path d="M2.97652 0.325818C2.76125 0.114995 2.48728 2.89176e-07 2.16438 2.89176e-07C1.51859 2.89176e-07 1 0.498309 1 1.13078C1 1.44701 1.13699 1.7345 1.36204 1.9549L8.21135 8.50958L1.36204 15.0451C1.13699 15.2655 1 15.5626 1 15.8692C1 16.5017 1.51859 17 2.16438 17C2.48728 17 2.76125 16.885 2.97652 16.6742L10.589 9.39121C10.863 9.14205 10.9902 8.8354 11 8.5C11 8.1646 10.863 7.87711 10.589 7.61838L2.97652 0.325818Z" fill="#608452"/>
</svg>
