<?xml version="1.0" standalone="no"?>
<!DOCTYPE svg PUBLIC "-//W3C//DTD SVG 20010904//EN"
 "http://www.w3.org/TR/2001/REC-SVG-20010904/DTD/svg10.dtd">
<svg version="1.0" xmlns="http://www.w3.org/2000/svg"
 width="1472.000000pt" height="1472.000000pt" viewBox="0 0 1472.000000 1472.000000"
 preserveAspectRatio="xMidYMid meet">
<metadata>
Created by potrace 1.14, written by Peter Selinger 2001-2017
</metadata>
<g transform="translate(0.000000,1472.000000) scale(0.100000,-0.100000)"
fill="#000000" stroke="none">
<path d="M7205 12313 c-25 -3 -141 -26 -195 -38 -143 -32 -376 -152 -466 -239
-12 -12 -30 -28 -40 -37 -100 -84 -211 -259 -248 -390 -80 -284 2 -580 223
-799 42 -41 86 -82 97 -91 46 -36 144 -98 163 -104 12 -3 21 -11 21 -16 0 -5
3 -8 8 -7 4 1 21 -4 37 -11 124 -52 239 -86 360 -106 141 -24 454 -3 565 37 8
3 44 16 80 28 98 34 166 68 260 129 94 63 222 183 266 251 16 25 32 47 35 50
17 14 82 167 99 236 21 80 30 240 16 299 -3 17 -8 41 -11 54 -14 73 -87 244
-115 271 -3 3 -22 28 -43 56 -69 96 -199 207 -317 270 -19 11 -38 23 -41 27
-3 5 -10 9 -15 9 -5 1 -25 8 -44 16 -19 8 -35 13 -35 11 0 -1 -11 4 -25 11
-14 8 -29 15 -35 16 -5 2 -41 12 -79 23 -38 11 -88 23 -110 27 -23 4 -52 9
-66 11 -32 6 -306 11 -345 6z"/>
<path d="M3248 11288 c-19 -29 -98 -196 -98 -208 0 -4 -4 -10 -8 -12 -6 -2
-67 -120 -77 -148 -2 -6 -45 -100 -80 -175 -51 -111 -94 -211 -94 -220 0 -3
-7 -19 -16 -35 -18 -34 -112 -268 -117 -290 -2 -8 -5 -17 -8 -20 -3 -3 -13
-30 -23 -60 -11 -30 -21 -62 -24 -70 -4 -8 -5 -18 -5 -22 1 -5 -3 -8 -8 -8 -5
0 -9 -3 -8 -7 2 -7 -79 -270 -99 -323 -3 -8 -7 -22 -9 -30 -1 -8 -7 -31 -13
-50 -9 -30 -54 -202 -66 -250 -2 -8 -13 -58 -25 -110 -25 -113 -36 -168 -55
-277 -7 -45 -16 -95 -20 -113 -2 -8 -4 -27 -4 -42 -1 -23 -5 -26 -23 -22 -13
3 -36 7 -53 10 -16 3 -37 8 -45 11 -8 3 -28 7 -45 9 -16 3 -61 11 -100 19 -68
13 -334 58 -425 70 -25 3 -56 8 -70 10 -14 2 -50 6 -80 9 -30 4 -68 8 -85 10
-16 2 -68 7 -115 11 -47 4 -93 9 -103 11 -128 24 -902 21 -1098 -5 -7 -1 -23
-51 -21 -63 1 -4 -2 -18 -7 -30 -5 -13 -12 -45 -15 -72 -4 -27 -9 -53 -12 -58
-3 -5 -8 -25 -10 -46 -2 -20 -9 -62 -14 -92 -12 -71 -25 -162 -36 -255 -3 -27
-7 -63 -9 -80 -27 -220 -27 -792 1 -1030 2 -22 6 -61 8 -86 2 -26 6 -51 8 -55
2 -5 5 -27 7 -49 1 -22 7 -57 12 -79 6 -21 8 -44 5 -52 -3 -8 -2 -14 2 -14 4
0 8 -8 9 -17 3 -38 12 -98 14 -98 2 0 5 -18 13 -65 2 -14 5 -25 6 -25 2 0 6
-18 13 -60 3 -16 8 -37 11 -45 5 -13 12 -46 20 -90 2 -8 6 -22 9 -30 3 -8 11
-37 18 -65 6 -27 15 -54 18 -60 3 -5 6 -12 6 -15 3 -24 30 -110 35 -110 3 0 6
-10 7 -22 2 -21 11 -46 74 -208 19 -47 34 -87 35 -90 2 -9 21 -55 53 -121 17
-36 31 -71 31 -77 0 -7 4 -12 10 -12 5 0 9 -4 7 -8 -1 -4 22 -55 51 -112 60
-119 57 -113 109 -200 22 -36 42 -72 46 -80 12 -23 27 -47 92 -144 33 -49 66
-100 73 -113 7 -13 17 -23 23 -23 5 0 9 -5 9 -10 0 -6 26 -43 58 -84 31 -40
68 -88 82 -106 14 -18 41 -51 60 -73 19 -21 55 -62 80 -91 102 -117 369 -375
488 -472 13 -10 33 -28 45 -38 36 -31 320 -242 347 -257 14 -8 27 -16 30 -19
14 -14 70 -50 78 -50 5 0 17 -9 27 -20 9 -10 20 -18 24 -17 8 2 63 -34 73 -48
4 -5 8 -6 8 -2 0 5 12 0 28 -11 125 -89 572 -307 837 -409 22 -8 49 -19 60
-23 11 -5 47 -18 80 -30 33 -13 69 -26 80 -31 34 -13 70 -23 78 -21 4 1 7 -3
7 -9 0 -5 5 -7 10 -4 6 4 16 3 23 -3 7 -5 33 -15 60 -22 26 -7 50 -17 53 -22
3 -4 10 -6 15 -2 5 3 17 0 26 -8 9 -7 18 -12 20 -10 4 3 55 -9 68 -17 6 -3 19
-6 30 -8 11 -1 82 -20 157 -42 170 -49 582 -146 703 -165 17 -3 41 -7 55 -11
14 -3 39 -8 55 -10 42 -7 74 -12 115 -20 19 -4 49 -8 65 -10 17 -2 41 -7 55
-10 14 -3 50 -8 80 -11 30 -4 60 -10 66 -15 6 -5 13 -7 16 -4 2 2 49 -2 104
-10 163 -23 177 -25 214 -30 36 -5 75 -10 165 -21 92 -10 110 -13 150 -18 65
-9 205 -24 275 -31 36 -4 76 -8 90 -10 14 -2 50 -7 80 -10 30 -3 71 -8 90 -10
19 -3 53 -7 74 -10 l40 -5 -25 17 c-13 9 -26 19 -29 23 -3 3 -43 36 -90 74
-47 38 -89 74 -95 80 -5 6 -35 31 -65 56 -30 25 -57 47 -60 50 -3 3 -39 34
-80 70 -41 36 -80 70 -86 75 -12 12 -128 114 -162 143 -24 21 -145 129 -185
165 -13 12 -59 54 -102 92 -43 39 -114 104 -159 145 -44 41 -96 90 -116 107
-19 18 -68 63 -107 100 -40 38 -107 100 -148 138 -121 112 -486 465 -480 465
1 0 -21 24 -49 54 -28 29 -60 64 -71 77 -11 13 -49 58 -84 99 -84 97 -72 82
-152 185 -38 50 -76 97 -83 105 -7 9 -15 24 -19 33 -3 9 -11 17 -17 17 -5 0
-10 7 -10 15 0 8 -4 15 -10 15 -5 0 -10 6 -10 14 0 8 -4 16 -9 18 -11 4 -171
246 -171 259 0 5 -4 9 -10 9 -5 0 -10 6 -10 14 0 8 -6 21 -12 28 -13 13 -18
22 -60 97 -107 188 -279 545 -292 606 -2 6 -8 21 -14 35 -9 21 -21 51 -27 70
-1 3 -5 12 -8 20 -23 54 -94 289 -126 415 -34 129 -47 186 -76 335 -6 31 -11
62 -20 120 -4 25 -9 59 -12 75 -3 17 -7 46 -9 65 -1 19 -3 35 -4 35 -1 0 -4
20 -5 45 -2 25 -4 45 -5 45 -4 0 -18 182 -26 320 -9 164 -4 750 6 750 1 0 3
20 5 45 3 60 19 200 30 260 3 14 8 42 11 64 3 21 8 48 10 60 2 11 7 37 10 56
5 27 67 292 89 380 5 20 75 272 79 285 8 27 28 101 29 105 0 3 13 41 29 85 16
44 29 82 30 85 1 9 8 29 15 48 3 9 7 19 7 22 7 31 147 393 196 505 5 11 18 40
28 65 11 25 28 63 38 85 9 22 16 44 15 49 -2 9 68 -1 84 -13 6 -4 28 -13 50
-20 42 -14 285 -106 320 -121 11 -5 49 -21 85 -36 36 -14 76 -31 90 -37 14 -6
27 -11 30 -12 3 -1 25 -10 50 -21 25 -10 48 -18 53 -16 4 1 7 -3 7 -8 0 -6 5
-10 11 -10 15 0 220 -92 406 -181 79 -38 145 -69 147 -69 2 0 25 -12 52 -27
27 -15 55 -28 62 -30 8 -1 22 -9 33 -19 10 -9 19 -13 19 -8 0 5 4 4 8 -1 4 -6
50 -32 102 -58 101 -50 208 -108 303 -163 32 -19 60 -34 63 -34 8 0 89 -54 96
-65 4 -5 8 -7 8 -3 0 4 21 -5 48 -21 103 -61 320 -196 374 -232 31 -22 61 -39
67 -39 5 0 11 -3 13 -8 2 -4 53 -40 113 -81 61 -41 112 -77 115 -80 3 -3 17
-12 33 -20 15 -8 27 -18 27 -23 0 -4 6 -8 14 -8 8 0 16 -3 18 -7 5 -13 86 -73
97 -73 5 0 11 -4 13 -8 2 -5 30 -28 63 -53 33 -24 62 -46 65 -49 3 -3 30 -24
60 -47 30 -23 65 -51 77 -62 l22 -21 -182 -183 c-150 -149 -247 -252 -362
-383 -64 -72 -133 -155 -228 -274 -60 -75 -210 -283 -287 -397 -102 -152 -98
-149 -154 -101 -11 10 -28 20 -38 24 -10 3 -18 10 -18 15 0 5 -5 9 -12 9 -6 0
-26 11 -44 25 -18 14 -37 25 -43 25 -6 0 -11 4 -11 9 0 5 -8 12 -17 15 -10 4
-34 16 -55 29 -102 62 -208 124 -253 147 -27 14 -52 27 -55 30 -3 3 -27 16
-55 30 -27 13 -53 29 -57 35 -4 5 -8 7 -8 2 0 -4 -19 5 -42 19 -22 14 -46 27
-52 28 -6 1 -82 37 -169 79 -87 42 -160 77 -162 77 -2 0 -30 12 -62 26 -97 44
-115 51 -198 84 -44 18 -89 36 -100 41 -96 43 -655 234 -687 234 -3 0 -10 3
-14 8 -4 4 -16 7 -26 7 -10 0 -19 -3 -19 -7 -17 -100 -34 -527 -22 -560 3 -6
16 -14 31 -18 15 -4 41 -13 57 -20 17 -7 71 -28 120 -46 50 -19 92 -36 95 -39
3 -3 14 -7 25 -8 10 -2 37 -12 60 -22 22 -10 103 -45 180 -78 229 -98 278
-121 540 -253 310 -157 339 -172 343 -181 2 -5 9 -8 17 -8 7 0 18 -7 25 -15 7
-8 16 -12 21 -9 5 3 9 0 9 -5 0 -6 4 -11 10 -11 5 0 50 -25 101 -55 50 -30 93
-55 95 -55 2 0 22 -13 46 -28 24 -16 59 -38 78 -48 19 -10 43 -27 53 -36 11
-9 32 -22 48 -28 16 -7 29 -17 29 -22 0 -5 5 -6 10 -3 6 3 10 2 10 -4 0 -5 23
-22 50 -37 28 -15 50 -31 50 -36 0 -4 7 -8 15 -8 8 0 15 -4 15 -10 0 -5 4 -10
9 -10 8 0 56 -32 220 -148 13 -9 45 -34 72 -54 27 -21 53 -38 58 -38 5 0 11
-3 13 -8 2 -6 57 -50 153 -125 52 -40 209 -167 242 -196 23 -20 54 -47 70 -60
15 -13 54 -47 86 -77 31 -30 57 -52 57 -48 0 3 105 -100 233 -228 213 -215
317 -325 317 -335 0 -3 6 -10 13 -17 6 -7 30 -34 52 -61 22 -27 48 -57 58 -67
9 -10 17 -21 17 -25 1 -5 16 -26 36 -48 l34 -40 58 61 c62 66 127 136 267 289
127 138 270 289 335 351 165 159 216 207 267 251 31 26 68 59 83 73 14 14 43
38 63 53 21 16 48 38 61 50 13 12 34 29 46 37 12 8 40 32 63 52 23 21 46 38
51 38 5 0 19 11 32 25 13 14 26 26 30 26 7 0 18 -22 52 -101 17 -42 27 -66 67
-167 20 -51 66 -177 67 -183 1 -7 4 -16 27 -90 29 -92 71 -252 71 -271 0 -9
-21 -43 -47 -76 -27 -33 -61 -77 -78 -98 -43 -54 -196 -239 -204 -245 -3 -3
-21 -23 -40 -45 -139 -164 -426 -465 -443 -465 -5 0 -6 -4 -3 -10 3 -5 2 -10
-2 -10 -5 0 -42 -33 -84 -72 -101 -98 -184 -174 -249 -228 -29 -25 -58 -50
-64 -55 -6 -6 -45 -38 -86 -70 -41 -33 -77 -62 -80 -65 -3 -3 -30 -23 -60 -45
-30 -22 -57 -42 -60 -45 -3 -3 -32 -25 -65 -48 -58 -40 -89 -51 -97 -34 -1 4
-43 36 -93 71 -49 36 -92 67 -95 71 -3 3 -30 24 -60 47 -30 23 -67 53 -82 65
-14 13 -46 39 -70 58 -23 19 -55 47 -70 62 -16 14 -28 25 -28 24 0 -16 -509
487 -630 623 -41 46 -80 89 -85 95 -19 21 -112 131 -131 155 -11 13 -26 31
-35 40 -8 9 -42 50 -75 91 -89 112 -88 111 -101 125 -7 8 -13 17 -13 21 0 3
-10 15 -21 25 -22 19 -22 19 -5 96 9 43 18 88 20 99 2 12 9 30 15 41 5 11 8
23 4 26 -3 4 -1 12 4 19 6 7 14 31 18 53 4 22 10 45 15 50 4 6 10 23 14 38 7
31 7 31 -98 110 -28 21 -58 44 -67 51 -27 22 -300 206 -305 206 -3 0 -17 9
-31 20 -14 11 -29 20 -33 20 -5 0 -20 -35 -36 -77 -15 -43 -32 -89 -37 -103
-6 -14 -11 -27 -12 -30 -2 -10 -37 -115 -42 -130 -8 -20 -14 -42 -17 -60 -1
-9 -5 -20 -8 -25 -7 -13 -22 -78 -20 -87 1 -5 -3 -8 -9 -8 -5 0 -8 -4 -5 -8 3
-5 -1 -29 -9 -54 -7 -26 -16 -59 -18 -75 -3 -15 -17 -75 -31 -133 l-25 -105
23 -35 c13 -19 24 -38 24 -43 1 -4 13 -20 27 -35 14 -15 25 -32 25 -39 0 -7 3
-13 8 -13 4 0 20 -20 35 -45 16 -25 33 -45 38 -45 5 0 9 -5 9 -11 0 -19 233
-315 373 -473 155 -176 380 -404 517 -526 47 -41 94 -84 105 -95 11 -11 52
-46 90 -77 39 -31 80 -66 92 -77 12 -12 25 -21 29 -21 4 0 14 -8 23 -17 9 -10
36 -34 61 -53 25 -19 47 -38 48 -42 2 -4 8 -8 14 -8 6 0 31 -17 57 -38 48 -40
259 -193 419 -303 133 -91 145 -99 165 -105 9 -4 17 -9 17 -13 0 -4 18 -17 40
-30 22 -12 47 -29 55 -37 11 -11 22 -13 38 -7 19 7 373 238 387 253 3 3 25 19
50 35 43 29 50 34 84 62 8 7 18 13 21 13 6 0 306 223 365 272 19 16 40 32 45
36 13 10 174 141 205 169 14 12 36 31 50 43 201 173 565 539 660 662 8 11 30
35 48 54 17 19 32 38 32 43 0 5 7 15 16 22 28 23 144 177 251 334 37 55 71
102 75 103 5 2 8 8 8 14 0 5 9 22 20 38 15 22 18 34 10 59 -5 17 -9 35 -9 39
-1 27 -66 264 -89 322 -5 14 -10 28 -11 33 -3 24 -15 63 -22 72 -4 6 -10 23
-13 39 -3 15 -10 34 -17 42 -6 8 -8 14 -4 14 4 0 2 7 -5 15 -7 8 -9 15 -6 15
4 0 1 10 -6 23 -7 12 -13 24 -13 27 -3 14 -20 62 -42 115 -14 33 -29 69 -34
80 -4 11 -22 52 -40 90 -47 102 -68 154 -68 162 0 3 -3 9 -8 12 -4 3 -36 62
-71 131 -122 246 -337 612 -444 757 -21 29 -38 56 -38 60 -1 4 -14 24 -30 43
-17 19 -30 38 -30 42 0 4 -8 17 -17 27 -33 37 -43 50 -43 61 0 5 -4 10 -8 10
-4 0 -15 12 -24 28 -19 31 -46 66 -70 93 -10 11 -18 23 -18 28 0 5 -3 11 -8
13 -4 2 -31 34 -60 72 -30 37 -61 77 -70 88 -34 40 -48 57 -82 98 -87 106
-182 203 -189 193 -3 -5 -28 -27 -56 -48 -27 -22 -52 -42 -55 -45 -3 -3 -27
-24 -55 -45 -27 -22 -56 -47 -65 -55 -16 -15 -157 -141 -191 -171 -11 -9 -19
-20 -19 -25 0 -5 22 -32 48 -61 126 -138 173 -193 277 -323 33 -41 63 -76 68
-78 4 -2 7 -8 7 -13 0 -5 9 -20 20 -32 12 -12 50 -62 85 -112 35 -49 68 -94
72 -100 12 -14 47 -68 53 -80 3 -5 26 -43 53 -83 26 -40 47 -74 47 -77 0 -2
11 -21 25 -41 l25 -37 -28 -24 c-45 -40 -52 -44 -52 -36 0 4 -4 3 -8 -3 -4 -6
-41 -37 -82 -67 -41 -31 -80 -60 -85 -64 -6 -4 -44 -35 -85 -68 -41 -33 -81
-65 -88 -72 -7 -7 -34 -29 -60 -50 -26 -21 -57 -48 -69 -60 -12 -13 -25 -23
-29 -23 -4 0 -22 -15 -39 -32 -18 -18 -63 -60 -100 -93 -38 -33 -132 -122
-209 -197 -77 -76 -144 -138 -148 -138 -4 0 -65 57 -136 128 -134 132 -217
211 -318 299 -32 28 -72 63 -89 78 -16 14 -43 36 -59 48 -15 12 -38 31 -50 42
-25 23 -84 70 -181 145 -38 30 -74 58 -80 63 -5 4 -45 33 -87 63 l-78 55 23
41 c43 78 202 313 234 346 7 7 13 17 13 22 0 5 6 15 13 22 7 7 33 40 57 73 25
33 47 62 50 65 3 3 31 37 62 76 31 39 62 77 70 85 7 8 29 34 49 59 20 25 49
59 65 76 16 18 54 60 84 94 172 197 510 533 680 680 14 12 36 31 50 43 14 12
55 47 90 78 84 72 214 171 315 239 44 30 82 57 85 61 3 3 70 50 150 104 80 55
147 103 148 107 2 5 8 6 13 2 5 -3 9 0 9 5 0 6 6 11 13 11 8 0 22 9 32 20 10
11 24 20 31 20 7 0 19 6 26 13 7 7 85 57 173 110 88 54 167 102 175 107 13 8
61 35 173 99 95 54 174 97 202 111 17 8 32 18 35 22 3 3 12 8 20 10 8 2 21 9
28 16 8 7 17 10 22 7 5 -3 10 -1 12 3 1 5 32 23 68 41 36 17 72 36 80 41 8 5
65 33 125 62 61 28 112 54 115 57 3 3 10 7 15 8 6 1 58 25 117 53 59 27 109
50 110 50 2 -1 36 15 76 35 40 19 75 35 77 35 3 0 74 30 158 66 83 36 157 67
162 68 17 5 48 17 80 32 27 12 80 33 323 123 46 17 90 31 97 31 10 0 42 -57
50 -90 0 -3 11 -26 23 -52 12 -26 37 -84 56 -130 18 -46 39 -96 46 -113 7 -16
19 -43 25 -60 27 -63 145 -397 149 -420 1 -5 5 -16 9 -22 5 -7 10 -21 12 -31
2 -11 13 -50 25 -88 12 -38 24 -78 26 -89 2 -11 17 -68 33 -126 17 -58 32
-117 34 -130 3 -13 10 -42 16 -64 11 -41 48 -216 57 -270 2 -16 9 -56 15 -88
6 -33 12 -73 14 -90 3 -18 7 -50 11 -73 6 -47 12 -43 -141 -89 -49 -14 -162
-49 -250 -77 -88 -28 -160 -49 -160 -47 0 1 -11 -4 -25 -11 -14 -8 -31 -15
-38 -16 -8 -1 -21 -6 -30 -10 -9 -4 -24 -8 -32 -10 -15 -3 -167 -58 -205 -75
-11 -4 -81 -32 -155 -60 -74 -28 -140 -56 -146 -61 -7 -5 -20 -11 -30 -13 -22
-4 -127 -48 -134 -55 -3 -3 -10 -6 -15 -7 -10 -1 -83 -33 -220 -96 -38 -18
-137 -65 -220 -106 -82 -41 -153 -74 -157 -73 -5 1 -8 -2 -8 -7 0 -7 -28 -19
-47 -19 -3 0 -9 -4 -12 -9 -3 -5 -28 -20 -56 -34 -84 -43 -267 -143 -283 -155
-2 -1 18 -36 45 -76 63 -97 62 -96 133 -216 33 -57 60 -106 60 -109 0 -3 9
-17 19 -31 10 -15 18 -31 17 -37 0 -5 11 -10 27 -11 15 -1 27 2 27 6 0 4 26
20 57 36 32 16 65 34 73 40 19 15 497 257 605 306 260 118 328 148 340 148 7
0 15 3 17 8 2 4 59 29 128 56 69 27 139 55 155 62 28 12 144 57 155 59 3 1 12
4 20 8 52 20 110 39 117 39 4 0 13 3 18 8 9 7 256 92 280 96 6 1 33 9 60 19
28 9 57 18 65 20 8 2 56 16 105 30 107 31 93 27 230 60 61 14 117 29 125 32 8
3 26 7 40 9 14 2 32 6 40 8 8 2 34 7 58 11 23 4 45 12 48 16 3 5 9 7 14 4 5
-3 27 -1 47 4 38 10 89 21 128 26 11 2 70 12 130 24 143 27 172 31 217 36 21
2 41 6 45 8 5 3 37 8 73 12 35 3 67 8 70 10 3 1 32 6 65 10 33 4 74 9 90 11
17 2 53 6 80 8 28 2 61 7 75 10 14 3 54 8 90 11 36 3 88 7 115 10 156 16 384
24 390 14 10 -15 27 -182 40 -384 6 -96 6 -355 0 -495 -8 -177 -14 -249 -36
-415 -6 -44 -13 -93 -14 -110 -2 -16 -4 -30 -5 -30 -2 0 -6 -23 -14 -80 -3
-22 -10 -58 -15 -80 -6 -22 -12 -53 -15 -70 -9 -50 -24 -110 -26 -110 -1 0 -3
-11 -5 -25 -2 -14 -13 -59 -25 -100 -12 -41 -23 -82 -25 -90 -7 -30 -112 -332
-130 -375 -54 -126 -110 -251 -115 -255 -3 -3 -25 -45 -49 -95 -25 -49 -49
-93 -54 -96 -5 -3 -8 -9 -7 -13 2 -12 -198 -331 -235 -373 -17 -20 -29 -36
-60 -78 -16 -22 -50 -65 -75 -95 -25 -30 -54 -66 -65 -79 -36 -45 -319 -325
-379 -376 -33 -28 -67 -57 -76 -65 -31 -30 -95 -75 -102 -72 -5 1 -8 -4 -9
-10 0 -7 -21 -28 -47 -45 -186 -128 -372 -249 -457 -298 -137 -79 -537 -279
-555 -277 -3 0 -14 -5 -25 -11 -11 -6 -24 -12 -30 -14 -5 -1 -53 -20 -105 -41
-129 -53 -462 -171 -530 -187 -8 -3 -40 -11 -70 -20 -30 -9 -62 -18 -70 -20
-8 -2 -15 -4 -15 -5 0 -3 -39 -12 -57 -13 -10 -1 -18 -6 -18 -11 0 -5 -3 -7
-6 -3 -3 3 -26 -1 -52 -8 -25 -8 -49 -12 -54 -9 -4 3 -8 0 -8 -7 0 -7 -3 -10
-6 -7 -3 4 -20 2 -37 -4 -18 -5 -45 -12 -60 -14 -15 -3 -50 -11 -77 -18 -47
-12 -66 -7 -36 11 13 8 99 82 174 151 20 17 40 32 45 32 4 0 5 5 2 10 -3 6 -1
10 5 10 6 0 90 80 188 178 174 175 218 221 337 357 33 37 65 73 70 79 6 6 37
45 69 86 33 41 62 77 66 80 3 3 25 32 50 65 25 33 50 66 57 75 49 64 97 130
169 239 46 69 88 131 92 136 6 8 91 145 127 207 52 89 135 243 176 328 74 153
131 275 134 285 11 38 18 55 24 55 4 0 8 6 8 13 1 14 88 243 104 270 6 11 8
21 5 24 -3 3 2 19 10 35 9 17 17 37 19 46 2 10 24 85 50 167 25 83 47 159 49
170 3 11 14 61 26 110 12 50 23 99 26 110 14 71 24 125 29 155 3 19 8 42 10
50 6 22 19 114 29 205 3 22 6 40 7 40 2 0 7 44 14 125 2 25 4 45 5 45 2 0 10
114 13 195 1 36 6 70 10 77 4 6 3 14 -2 18 -6 3 -7 16 -3 28 4 12 7 36 6 52
-1 17 -2 40 -3 53 -1 19 -5 22 -28 18 -16 -2 -28 -5 -28 -6 0 -1 -9 -3 -20 -5
-11 -2 -58 -14 -105 -26 -47 -11 -93 -22 -102 -22 -10 -1 -18 -4 -18 -7 0 -3
-9 -6 -20 -7 -11 -1 -86 -21 -167 -44 -82 -23 -154 -42 -160 -42 -7 0 -13 -3
-14 -6 0 -3 -2 -35 -4 -71 -6 -108 -20 -271 -30 -335 -3 -22 -8 -57 -10 -77
-7 -57 -14 -100 -20 -131 -2 -15 -10 -54 -15 -87 -6 -33 -13 -72 -16 -87 -15
-81 -68 -286 -109 -418 -25 -82 -47 -154 -48 -160 -2 -5 -5 -14 -8 -20 -4 -5
-12 -28 -19 -50 -7 -22 -17 -46 -23 -52 -5 -7 -7 -13 -4 -13 3 0 -1 -17 -10
-37 -32 -77 -36 -88 -38 -98 -9 -40 -201 -427 -283 -570 -92 -160 -162 -269
-272 -423 -19 -27 -42 -59 -50 -72 -8 -12 -20 -28 -25 -34 -6 -6 -24 -29 -40
-51 -17 -22 -49 -64 -73 -93 -60 -76 -65 -81 -85 -103 -10 -11 -33 -39 -51
-64 -19 -24 -37 -41 -40 -38 -3 4 -6 1 -6 -6 0 -6 -18 -29 -40 -51 -22 -22
-40 -42 -40 -45 0 -5 -189 -195 -194 -195 -1 0 -47 -44 -103 -97 -190 -184
-336 -323 -338 -323 -2 0 -32 -28 -68 -62 -35 -35 -103 -99 -151 -143 -48 -44
-104 -96 -125 -115 -95 -89 -172 -159 -224 -205 -32 -27 -80 -70 -106 -95 -58
-54 -150 -134 -325 -285 -32 -27 -68 -59 -81 -70 -12 -11 -41 -36 -65 -55 -24
-19 -51 -42 -60 -51 -9 -8 -25 -22 -37 -30 -11 -8 -44 -34 -73 -59 -29 -25
-60 -50 -69 -57 -17 -13 -21 -13 104 2 64 8 105 12 180 20 33 3 71 8 85 10 14
2 52 6 85 10 33 3 80 8 105 11 25 3 63 7 84 9 21 3 55 7 75 9 20 3 61 8 91 11
30 4 66 8 80 10 33 5 94 13 150 21 25 3 56 7 70 9 26 4 102 14 155 20 17 2 31
5 33 6 4 3 15 5 77 13 32 4 68 10 80 12 23 5 79 14 115 19 14 2 36 7 50 10 14
3 41 8 60 11 19 2 46 7 60 10 14 3 34 7 45 9 42 7 271 56 302 64 17 5 34 6 37
3 3 -3 6 0 6 7 0 7 4 10 8 7 7 -4 36 1 102 19 8 2 42 10 75 19 90 22 239 64
332 92 46 14 84 25 85 24 2 0 36 11 76 24 39 14 72 22 72 18 0 -4 4 -2 8 3 7
11 91 40 105 37 4 -1 7 3 7 9 0 5 4 8 8 5 5 -3 20 1 35 9 15 8 27 12 27 10 0
-3 69 24 245 95 112 45 273 117 318 141 20 11 37 17 37 12 0 -4 4 -3 8 3 4 5
57 35 117 66 61 31 150 79 198 107 49 28 90 51 92 51 5 0 138 87 152 100 7 6
15 10 19 9 3 0 16 8 29 19 13 11 26 18 29 15 3 -4 6 -1 6 5 0 7 6 12 13 12 6
0 27 14 46 30 18 17 37 30 42 30 4 0 14 6 21 13 7 7 29 24 48 37 19 13 41 30
48 37 7 7 16 13 20 13 4 0 21 13 38 28 17 15 49 41 70 57 317 249 674 632 894
960 30 44 59 83 65 87 6 5 6 8 0 8 -6 0 -6 3 1 8 6 4 41 59 78 122 90 153 92
158 118 210 13 25 26 47 31 48 4 2 7 12 7 23 0 10 5 19 10 19 6 0 9 3 8 8 -1
4 16 45 39 92 22 47 46 102 54 123 7 20 17 37 21 37 4 0 7 3 6 8 -1 8 3 21 32
93 11 25 26 68 35 95 9 27 20 58 25 69 10 21 60 179 65 205 2 8 4 16 5 18 2 1
3 5 4 10 1 4 5 13 9 20 5 6 6 12 3 12 -3 0 1 18 9 40 8 22 14 42 15 45 0 3 0
6 1 8 1 2 2 10 13 57 3 14 8 36 11 50 13 53 17 75 18 88 0 6 3 12 6 12 3 0 6
10 7 23 1 20 8 61 20 121 6 28 32 192 38 236 2 19 5 35 6 35 1 0 3 23 5 51 2
28 6 66 9 85 26 172 28 838 2 999 -3 14 -7 55 -11 92 -3 37 -8 77 -10 90 -5
32 -17 119 -20 143 -5 34 -20 120 -35 200 -6 28 -12 61 -14 75 -3 14 -5 26 -7
28 -2 2 -3 6 -12 55 -5 20 -13 37 -20 38 -56 5 -118 8 -282 14 -279 10 -359
10 -373 1 -7 -4 -12 -2 -12 4 0 6 -3 9 -7 7 -5 -3 -80 -8 -168 -12 -175 -7
-199 -9 -325 -20 -136 -11 -235 -21 -300 -30 -8 -1 -42 -5 -75 -10 -33 -4 -67
-9 -75 -10 -36 -6 -97 -16 -125 -20 -16 -2 -43 -7 -60 -10 -16 -3 -43 -7 -60
-10 -16 -3 -41 -7 -55 -10 -14 -3 -38 -7 -55 -10 -16 -2 -61 -11 -99 -19 -38
-9 -73 -13 -77 -10 -5 3 -9 0 -9 -7 0 -7 -3 -10 -6 -7 -3 4 -19 2 -35 -2 -33
-10 -40 -2 -45 49 -1 14 -3 26 -4 26 -2 0 -6 22 -14 72 -14 92 -17 109 -22
123 -3 8 -8 29 -10 47 -9 67 -70 322 -119 493 -15 52 -28 100 -30 105 -1 6 -5
17 -8 25 -3 8 -18 56 -33 105 -31 102 -90 271 -105 297 -5 10 -9 26 -9 36 0
10 -4 22 -8 27 -5 6 -23 48 -41 95 -19 47 -38 96 -44 110 -6 14 -11 27 -12 30
-1 3 -6 16 -12 30 -6 14 -23 54 -38 90 -15 36 -32 71 -37 78 -6 6 -7 12 -4 12
4 0 0 12 -8 28 -9 15 -32 63 -52 107 -20 44 -50 109 -67 145 -17 36 -31 67
-32 70 -4 12 -26 56 -34 70 -7 11 -107 215 -116 237 -1 2 -17 -2 -36 -8 -19
-5 -41 -12 -49 -14 -8 -1 -44 -13 -80 -24 -36 -12 -74 -23 -85 -25 -27 -6
-414 -134 -440 -146 -11 -5 -54 -21 -95 -36 -70 -24 -159 -56 -205 -75 -11 -4
-51 -20 -90 -34 -70 -27 -104 -41 -160 -65 -16 -7 -34 -14 -40 -15 -5 -1 -28
-9 -50 -19 -22 -10 -103 -45 -180 -78 -77 -33 -173 -76 -212 -94 -40 -19 -108
-50 -150 -70 -100 -46 -426 -207 -433 -214 -3 -3 -41 -23 -85 -46 -44 -22 -91
-47 -105 -56 -14 -8 -63 -36 -110 -62 -47 -25 -107 -59 -135 -75 -27 -17 -61
-36 -75 -44 -53 -29 -76 -43 -93 -56 -9 -8 -17 -10 -17 -5 0 5 -4 4 -8 -2 -4
-7 -21 -20 -39 -30 -118 -70 -413 -259 -440 -283 -7 -6 -15 -11 -19 -11 -3 0
-23 -13 -44 -30 -21 -16 -41 -30 -44 -30 -3 0 -14 -7 -23 -14 -16 -13 -92 -68
-203 -146 -19 -14 -51 -38 -70 -53 -19 -15 -40 -31 -45 -35 -38 -27 -91 -67
-95 -72 -3 -3 -23 -19 -45 -35 -48 -35 -72 -55 -92 -74 -14 -13 -17 -13 -28 2
-7 9 -17 17 -23 17 -6 0 -12 3 -14 8 -1 4 -23 23 -48 42 -61 48 -80 63 -95 78
-8 6 -18 12 -24 12 -6 0 -11 5 -11 10 0 6 -4 10 -9 10 -5 0 -23 12 -39 27 -17
14 -50 40 -75 57 -24 17 -102 72 -173 122 -71 50 -174 121 -229 157 -55 37
-104 70 -110 75 -5 4 -32 21 -59 37 -27 17 -59 37 -71 45 -40 26 -330 200
-398 239 -21 12 -70 39 -108 61 -39 22 -75 40 -79 40 -5 0 -10 3 -12 8 -8 18
-737 382 -765 382 -7 0 -13 5 -13 10 0 6 -3 9 -7 8 -9 -2 -34 9 -123 50 -36
16 -99 44 -140 62 -41 17 -100 42 -130 54 -66 28 -249 100 -280 111 -3 1 -18
8 -35 15 -16 7 -33 14 -37 15 -5 2 -9 3 -10 5 -2 1 -10 3 -18 5 -8 2 -64 22
-125 45 -60 23 -114 43 -120 45 -5 1 -17 5 -25 8 -51 21 -190 65 -190 60 0 -3
-6 -1 -12 5 -7 5 -60 24 -118 41 -58 18 -113 36 -122 41 -10 6 -24 10 -32 10
-12 0 -150 41 -191 57 -7 2 -19 -6 -27 -19z m-2189 -2852 c6 -4 11 -2 11 4 0
6 5 8 12 4 6 -4 30 -9 52 -10 43 -2 119 -9 221 -20 33 -3 74 -7 90 -9 17 -1
30 -4 30 -5 0 -1 22 -3 49 -6 27 -2 60 -6 75 -9 14 -3 44 -8 66 -11 135 -18
178 -25 370 -64 105 -21 213 -44 242 -50 l51 -11 -4 -47 c-6 -59 -6 -61 -1
-94 2 -16 0 -28 -5 -28 -5 0 -4 -9 2 -20 6 -11 7 -20 3 -20 -10 0 -9 -172 0
-187 4 -7 3 -14 -3 -18 -7 -4 -7 -12 0 -26 6 -10 7 -19 3 -19 -4 0 -8 -13 -8
-30 0 -16 2 -30 5 -30 3 0 5 -26 6 -58 1 -82 13 -268 18 -283 3 -8 7 -43 10
-79 3 -36 9 -85 12 -110 4 -25 7 -55 6 -67 0 -13 3 -23 7 -23 3 0 7 -18 8 -40
1 -22 5 -52 8 -67 3 -15 9 -41 12 -58 3 -16 11 -61 19 -100 8 -38 17 -83 20
-100 3 -16 17 -73 31 -125 14 -52 26 -102 28 -110 3 -14 22 -77 67 -220 11
-36 21 -71 21 -77 0 -7 4 -13 9 -13 5 0 7 -4 3 -9 -3 -5 -1 -12 5 -16 5 -3 10
-15 10 -25 0 -11 11 -44 24 -75 14 -30 23 -55 21 -55 -2 0 15 -42 36 -92 22
-51 42 -100 44 -108 2 -8 10 -28 19 -45 19 -39 99 -208 101 -215 4 -12 30 -65
35 -70 8 -7 33 -62 36 -79 1 -8 7 -17 13 -20 5 -4 14 -15 18 -26 7 -17 88
-164 118 -213 6 -9 24 -39 40 -67 31 -52 220 -339 236 -359 5 -6 34 -45 64
-86 29 -41 58 -79 62 -85 5 -5 24 -30 43 -55 19 -25 39 -50 45 -57 5 -6 20
-24 32 -40 12 -15 32 -40 45 -55 13 -14 39 -46 58 -69 19 -24 44 -53 55 -65
11 -12 54 -59 95 -105 91 -101 428 -438 497 -496 28 -24 65 -56 83 -73 18 -16
33 -30 35 -30 2 0 17 -13 35 -30 35 -33 33 -35 -20 -20 -19 5 -46 11 -60 14
-24 5 -38 8 -92 22 -13 3 -30 7 -38 9 -8 2 -15 4 -15 5 0 1 -9 3 -20 5 -32 5
-64 13 -73 18 -4 3 -24 8 -46 11 -21 4 -43 9 -50 13 -6 4 -15 9 -21 10 -5 1
-30 7 -55 13 -25 6 -54 14 -65 19 -11 5 -47 16 -80 26 -33 10 -71 22 -85 28
-14 5 -29 11 -35 12 -28 7 -255 89 -330 120 -11 5 -22 9 -25 10 -103 35 -592
269 -598 286 -2 5 -12 9 -23 9 -10 0 -19 5 -19 10 0 6 -7 10 -15 10 -8 0 -15
5 -15 10 0 6 -5 10 -11 10 -6 0 -36 15 -66 33 -30 17 -62 37 -72 42 -21 12
-200 134 -261 176 -25 17 -46 35 -48 40 -2 5 -10 9 -17 9 -7 0 -15 3 -17 8 -1
4 -24 23 -50 43 -58 44 -145 117 -176 146 -12 13 -25 23 -28 23 -3 0 -72 66
-153 148 -149 149 -220 228 -311 342 -14 17 -33 41 -42 52 -10 12 -18 24 -18
28 0 4 -11 20 -25 36 -40 46 -45 53 -45 64 0 5 -4 10 -10 10 -5 0 -10 7 -10
15 0 9 -7 18 -15 21 -8 4 -15 10 -15 15 0 6 -8 22 -19 37 -32 47 -99 155 -121
197 -12 22 -30 55 -40 73 -11 17 -16 32 -12 32 4 0 2 4 -4 8 -9 6 -114 214
-114 226 0 3 -13 34 -29 68 -57 125 -181 492 -194 574 -1 10 -6 25 -11 32 -4
7 -5 19 -2 27 3 8 2 15 -3 15 -4 0 -8 6 -9 13 -1 14 -9 60 -18 97 -3 14 -8 34
-10 45 -1 11 -6 34 -9 50 -3 17 -8 39 -10 50 -2 11 -6 36 -9 55 -3 19 -7 44
-10 55 -4 24 -13 92 -21 155 -3 25 -7 63 -10 85 -32 277 -26 848 12 1110 3 28
6 54 5 58 -3 10 340 3 357 -7z"/>
</g>
</svg>
