<svg width="16" height="13" viewBox="0 0 16 13" fill="none" xmlns="http://www.w3.org/2000/svg">
<path d="M1.24736 7.2543L13.1301 7.2543L8.74531 11.5491C8.48222 11.812 8.48222 12.2065 8.74531 12.4694C9.0084 12.7324 9.40303 12.7324 9.66611 12.4694L15.1909 7.079C15.3225 6.99135 15.4102 6.81605 15.4102 6.64076C15.4102 6.46546 15.3225 6.29016 15.2348 6.15869L9.70996 0.636797C9.57842 0.505323 9.40303 0.461498 9.22763 0.461498C9.05224 0.461498 8.87685 0.505323 8.74531 0.636797C8.48222 0.899744 8.48222 1.29416 8.74531 1.55711L13.1301 5.93956L1.24736 5.93956C1.24736 5.93956 0.589643 6.24633 0.589643 6.59693C0.589643 6.94753 0.896578 7.2543 1.24736 7.2543Z" fill="#83AD7C"/>
</svg>
