<svg width="16" height="13" viewBox="0 0 16 13" fill="none" xmlns="http://www.w3.org/2000/svg">
<path d="M14.7526 5.7457L2.86992 5.7457L7.25469 1.4509C7.51778 1.18795 7.51778 0.793531 7.25469 0.530584C6.9916 0.267637 6.59697 0.267637 6.33389 0.530584L0.809082 5.921C0.677539 6.00865 0.589844 6.18395 0.589844 6.35924C0.589844 6.53454 0.677539 6.70984 0.765234 6.84131L6.29004 12.3632C6.42158 12.4947 6.59697 12.5385 6.77237 12.5385C6.94776 12.5385 7.12315 12.4947 7.25469 12.3632C7.51778 12.1003 7.51778 11.7058 7.25469 11.4429L2.86992 7.06044L14.7526 7.06044C14.7526 7.06044 15.4104 6.75367 15.4104 6.40307C15.4104 6.05247 15.1034 5.7457 14.7526 5.7457Z" fill="#83AD7C"/>
</svg>
