<svg width="46" height="31" viewBox="0 0 46 31" fill="none" xmlns="http://www.w3.org/2000/svg">
<path d="M22.9981 5.805C24.9563 5.805 26.5436 4.50551 26.5436 2.9025C26.5436 1.29949 24.9563 0 22.9981 0C21.04 0 19.4526 1.29949 19.4526 2.9025C19.4526 4.50551 21.04 5.805 22.9981 5.805Z" fill="#83AD7C"/>
<path d="M45.5573 10.4972C44.5653 10.437 42.1036 10.2415 38.5397 11.0235C38.0805 8.00072 37.0701 5.65466 35.8209 3.1582C30.8057 4.60193 26.3233 6.99311 22.9982 9.68507C19.6732 6.99311 15.1907 4.5869 10.1756 3.1582C8.92636 5.65466 7.89761 8.00072 7.45671 11.0235C3.61726 10.1964 1.41279 10.437 0.439149 10.4972C-0.626345 15.0539 0.181961 20.2273 3.58052 24.0021C8.37524 29.3559 15.999 29.762 19.9303 30.2432C18.277 28.9348 14.5478 25.4909 13.7578 24.6487L13.7395 24.6337C10.2123 20.8589 9.11007 16.9188 9.36726 12.3169C9.42237 11.3694 9.62444 10.422 9.80815 9.71515C10.1572 8.2263 10.6899 6.75249 11.3513 5.29372C13.2434 5.95543 17.7259 7.74506 21.6388 10.9032C20.1875 12.2567 18.9751 13.7004 18.0198 15.2194C18.0198 15.2194 15.2642 13.1891 10.9655 11.9559C10.892 12.5425 10.8736 13.1741 10.892 13.7606C17.1748 15.9864 21.3816 19.8664 22.9982 22.0921C24.3393 20.6484 25.2394 19.5205 27.2602 17.9865C27.6276 18.8287 27.9399 19.6859 28.142 20.5582C27.5174 21.3853 25.4599 23.957 23.0166 25.6112C20.5733 23.957 18.5158 21.3853 17.8912 20.5582C18.0014 20.107 18.0933 19.701 18.2586 19.2498C17.781 18.8588 17.1748 18.4377 16.5502 18.0467C16.146 19.0543 15.9256 19.9115 15.7235 20.874C18.1668 24.5435 20.8856 26.3481 22.9799 27.7317C25.2027 26.288 28.2706 24.1675 30.3097 20.874C29.3545 16.5278 26.2315 12.7831 25.3497 11.8807C24.8537 12.2718 24.3393 12.7079 23.9168 13.1139C24.8904 14.1516 25.7171 15.2344 26.3784 16.3623C25.1292 17.2647 24.0086 18.2271 22.9982 19.2799C21.9695 18.2121 20.8672 17.2496 19.618 16.3623C21.253 13.6403 24.1556 10.9333 25.5334 10.046C29.134 7.42924 32.9551 5.92535 34.6636 5.3238C35.6372 7.44428 36.2802 9.51964 36.5374 11.5349C33.8001 12.3018 31.3752 13.3395 29.1156 14.6178C29.4463 15.084 29.7586 15.6254 30.0342 16.1518C32.0549 14.9788 35.031 13.6553 37.6763 12.9936C40.1012 12.3921 42.6548 12.1063 43.8121 12.1063C44.0509 13.896 44.3632 19.0092 40.781 23.0245C38.7235 25.3105 35.7107 26.8895 31.7977 27.7468C34.7003 25.3105 38.6867 20.7236 38.7602 13.9561C38.0621 14.1215 37.3457 14.302 36.6843 14.4975C36.5006 18.9039 34.5717 22.1673 32.2754 24.6337C32.11 24.7841 28.5829 28.2581 26.0845 30.2432C30.0158 29.777 37.6396 29.371 42.4343 24.0021C45.8145 20.2273 46.6228 15.0539 45.5573 10.4972ZM14.2171 27.7317C10.3042 26.8745 7.29138 25.2954 5.23387 23.0095C1.63324 19.0092 1.94554 13.896 2.20273 12.0913C2.2211 12.0913 2.23947 12.0913 2.23947 12.0913C3.72748 12.0913 5.45432 12.3018 7.27301 12.7229C6.85048 20.1672 11.1492 25.145 14.2171 27.7317Z" fill="#608452"/>
</svg>
