<svg width="20" height="20" viewBox="0 0 20 20" fill="none" xmlns="http://www.w3.org/2000/svg">
<path d="M15.524 19.2999C14.4267 19.2999 12.5698 18.6246 11.0505 17.865C7.54767 16.1769 1.5549 9.59328 0.668647 6.47029C0.120014 5.07761 -0.0909993 3.98034 0.0356084 3.3051C0.077811 3.09408 0.162216 2.67205 2.77878 0.393108L2.82098 0.350916C3.2008 0.0554981 4.12926 -0.282133 4.88891 0.393108C5.52194 0.941742 6.95683 3.09408 7.21005 3.51611C7.29445 3.68492 8.0119 4.9088 7.46327 5.83725C7.21005 6.25928 6.74582 7.18775 6.49261 7.69418C7.08344 8.53823 8.85595 10.9438 11.3881 12.8007L13.0762 11.9144C13.1606 11.8722 13.9625 11.5346 14.9753 11.9144L15.1019 11.9988L18.4781 14.32C18.5203 14.3622 19.069 14.8264 19.1112 15.5438C19.1112 15.8393 19.069 16.2613 18.6891 16.6833C18.5625 16.8099 18.3937 17.0209 18.2249 17.232C17.2965 18.3292 16.6212 19.0889 16.0304 19.2999C15.8616 19.2577 15.6928 19.2999 15.524 19.2999ZM1.21728 3.5583C1.21728 3.76932 1.21728 4.48677 1.80812 6.04827V6.09046C2.60996 8.91803 8.30731 15.2062 11.5147 16.7255C13.9203 17.865 15.3129 18.076 15.5662 18.0338C15.8616 17.9072 16.79 16.8521 17.1699 16.3879C17.3387 16.1769 17.5075 15.9659 17.6763 15.7971C17.8029 15.6704 17.8029 15.586 17.8029 15.586C17.8029 15.4594 17.6763 15.3328 17.5919 15.2484L14.3845 13.0539C13.9203 12.9273 13.5826 13.0117 13.5404 13.0539L11.2615 14.32L10.9239 14.109C7.42106 11.619 5.22653 8.24281 5.14212 8.1162L4.97331 7.82075L5.14212 7.48316C5.18433 7.39876 5.94397 5.83725 6.32379 5.20421C6.4082 5.0354 6.28159 4.52895 6.07058 4.23353C5.47974 3.30508 4.38247 1.7014 4.00265 1.40598C3.83384 1.23717 3.62283 1.36378 3.53842 1.40598C2.56776 2.16563 1.4283 3.22068 1.21728 3.5583Z" fill="#F8FFF6"/>
</svg>
