<svg width="40" height="25" viewBox="0 0 40 25" fill="none" xmlns="http://www.w3.org/2000/svg">
<path d="M39.5318 7.10879C38.671 7.05659 36.535 6.88694 33.4424 7.56553C33.0439 4.94252 32.1672 2.90675 31.0832 0.740479C26.7313 1.99326 22.8418 4.06818 19.9565 6.4041C17.0712 4.06818 13.1816 1.98021 8.82973 0.740479C7.74575 2.90675 6.85306 4.94252 6.47048 7.56553C3.13884 6.84779 1.22593 7.05659 0.381067 7.10879C-0.543504 11.0629 0.157894 15.552 3.10696 18.8275C7.26752 23.4732 13.883 23.8256 17.2943 24.2432C15.8597 23.1079 12.6237 20.1194 11.9382 19.3887L11.9223 19.3756C8.86161 16.1001 7.90516 12.6811 8.12833 8.68781C8.17615 7.86567 8.3515 7.04354 8.51091 6.43019C8.81379 5.13826 9.27607 3.85938 9.84994 2.59355C11.4919 3.16774 15.3814 4.72067 18.7768 7.46113C17.5175 8.63561 16.4654 9.88839 15.6365 11.2064C15.6365 11.2064 13.2453 9.4447 9.51519 8.37462C9.45142 8.88356 9.43548 9.43165 9.45142 9.94059C14.9032 11.872 18.5537 15.2388 19.9565 17.1702C21.1201 15.9174 21.9012 14.9387 23.6547 13.6076C23.9736 14.3384 24.2445 15.0822 24.4199 15.8391C23.8779 16.5568 22.0925 18.7884 19.9724 20.2238C17.8523 18.7884 16.0669 16.5568 15.5249 15.8391C15.6205 15.4476 15.7002 15.0953 15.8437 14.7038C15.4292 14.3645 14.9032 13.9991 14.3612 13.6598C14.0105 14.5341 13.8192 15.278 13.6439 16.1132C15.764 19.2973 18.1233 20.8633 19.9405 22.0639C21.8694 20.8111 24.5315 18.9711 26.3009 16.1132C25.472 12.3418 22.762 9.09236 21.9969 8.30937C21.5665 8.64866 21.1201 9.02711 20.7535 9.37945C21.5984 10.2799 22.3157 11.2195 22.8896 12.1982C21.8056 12.9812 20.8332 13.8164 19.9565 14.7299C19.0638 13.8033 18.1073 12.9681 17.0233 12.1982C18.4421 9.83619 20.9607 7.48723 22.1563 6.71729C25.2807 4.44662 28.5964 3.14164 30.0789 2.61965C30.9238 4.45967 31.4817 6.26055 31.7049 8.00922C29.3297 8.67476 27.2255 9.5752 25.2648 10.6844C25.5517 11.089 25.8227 11.5588 26.0618 12.0155C27.8153 10.9976 30.3977 9.84925 32.6932 9.27505C34.7974 8.75306 37.0132 8.50511 38.0175 8.50511C38.2247 10.058 38.4957 14.495 35.3872 17.9793C33.6018 19.9628 30.9875 21.3331 27.5921 22.0769C30.1108 19.9628 33.57 15.9827 33.6337 10.1102C33.028 10.2538 32.4063 10.4104 31.8324 10.58C31.673 14.4036 29.9992 17.2354 28.0066 19.3756C27.8631 19.5061 24.8025 22.5206 22.6345 24.2432C26.0459 23.8386 32.6613 23.4863 36.8219 18.8275C39.755 15.552 40.4564 11.0629 39.5318 7.10879ZM12.3367 22.0639C8.94131 21.32 6.32701 19.9498 4.54163 17.9662C1.41722 14.495 1.68822 10.058 1.91139 8.49206C1.92733 8.49206 1.94327 8.49206 1.94327 8.49206C3.23448 8.49206 4.73292 8.67476 6.31107 9.04016C5.94443 15.4998 9.67459 19.8193 12.3367 22.0639Z" fill="#FFFEF2"/>
</svg>
